<mxfile modified="2023-01-10T03:00:06.900Z" host="Electron" agent="5.0 (Windows NT 10.0; Win64; x64) AppleWebKit/537.36 (KHTML, like Gecko) draw.io/20.3.0 Chrome/104.0.5112.114 Electron/20.1.3 Safari/537.36" etag="l6_M3wYQ5-qrcrIzCGxf" compressed="false" version="20.3.0" type="device">
  <diagram id="PgrD4HbqEQVAz3rj7Xl_" name="Testing/Groups">
    <mxGraphModel dx="782" dy="515" grid="1" gridSize="10" guides="1" tooltips="1" connect="1" arrows="1" fold="1" page="1" pageScale="1" pageWidth="850" pageHeight="1100" math="0" shadow="0">
      <root>
        <mxCell id="k7MUPYq6dRed5NR_1Xcw-0" />
        <mxCell id="la0UUC1jsswevAtZVqtc-3" value="About" parent="k7MUPYq6dRed5NR_1Xcw-0" />
        <mxCell id="la0UUC1jsswevAtZVqtc-0" value="Title/Diagram" parent="k7MUPYq6dRed5NR_1Xcw-0" visible="0" />
        <mxCell id="HnEkBWhdmRtHBTPp4KBJ-1" value="&lt;font style=&quot;font-size: 12px&quot;&gt;Diagram: Testing - Test Groups&lt;/font&gt;" style="text;strokeColor=none;fillColor=none;html=1;fontSize=24;fontStyle=2;verticalAlign=middle;align=left;shadow=0;glass=0;comic=0;opacity=30;fontColor=#808080;" parent="la0UUC1jsswevAtZVqtc-0" vertex="1">
          <mxGeometry x="120" y="420" width="520" height="20" as="geometry" />
        </mxCell>
        <mxCell id="la0UUC1jsswevAtZVqtc-2" value="Title/Page" parent="k7MUPYq6dRed5NR_1Xcw-0" visible="0" />
        <mxCell id="HnEkBWhdmRtHBTPp4KBJ-0" value="" style="group;fontSize=10;" parent="la0UUC1jsswevAtZVqtc-2" connectable="0" vertex="1">
          <mxGeometry x="120" y="120" width="560" height="45" as="geometry" />
        </mxCell>
        <mxCell id="HnEkBWhdmRtHBTPp4KBJ-2" value="" style="line;strokeWidth=2;html=1;shadow=0;glass=0;comic=0;fillColor=none;fontSize=10;fontColor=#CCCCCC;labelBackgroundColor=none;strokeColor=#CCCCCC;" parent="HnEkBWhdmRtHBTPp4KBJ-0" vertex="1">
          <mxGeometry y="35" width="560" height="10" as="geometry" />
        </mxCell>
        <mxCell id="la0UUC1jsswevAtZVqtc-4" value="&lt;font style=&quot;font-size: 12px&quot;&gt;Base Logical Module - Testing - Test Groups&lt;/font&gt;" style="text;strokeColor=none;fillColor=none;html=1;fontSize=24;fontStyle=1;verticalAlign=middle;align=left;shadow=0;glass=0;comic=0;opacity=30;fontColor=#808080;" parent="HnEkBWhdmRtHBTPp4KBJ-0" vertex="1">
          <mxGeometry x="10" y="10" width="560" height="40" as="geometry" />
        </mxCell>
        <mxCell id="la0UUC1jsswevAtZVqtc-1" value="Notes" parent="k7MUPYq6dRed5NR_1Xcw-0" />
        <mxCell id="HnEkBWhdmRtHBTPp4KBJ-20" value="Time to Respond (TTR) is the time to receive back the first byte of the page (a network concern).&lt;br&gt;Time to Load (TTL) is the time for the page to load, including scripts, styles, media (a test of availability and usability, which are more important)." style="shape=note;whiteSpace=wrap;html=1;size=14;verticalAlign=top;align=left;spacingTop=-6;strokeWidth=1;fontFamily=Helvetica;fontSize=12;" parent="la0UUC1jsswevAtZVqtc-1" vertex="1">
          <mxGeometry x="570" y="180" width="110" height="210" as="geometry" />
        </mxCell>
        <mxCell id="k7MUPYq6dRed5NR_1Xcw-1" value="Boxes" parent="k7MUPYq6dRed5NR_1Xcw-0" />
        <mxCell id="b5UaMn_OowCiiDFbceRa-0" value="System Test" style="rounded=0;whiteSpace=wrap;html=1;strokeColor=#666666;strokeWidth=1;fillColor=#f5f5f5;fontSize=12;fontColor=#333333;align=center;" parent="k7MUPYq6dRed5NR_1Xcw-1" vertex="1">
          <mxGeometry x="120" y="200" width="80" height="40" as="geometry" />
        </mxCell>
        <mxCell id="HnEkBWhdmRtHBTPp4KBJ-3" value="Data Test" style="rounded=0;whiteSpace=wrap;html=1;strokeColor=#666666;strokeWidth=1;fillColor=#f5f5f5;fontSize=12;fontColor=#333333;align=center;" parent="k7MUPYq6dRed5NR_1Xcw-1" vertex="1">
          <mxGeometry x="120" y="250" width="80" height="40" as="geometry" />
        </mxCell>
        <mxCell id="HnEkBWhdmRtHBTPp4KBJ-4" value="Service Level Agreement (SLA)Test" style="rounded=0;whiteSpace=wrap;html=1;strokeColor=#666666;strokeWidth=1;fillColor=#f5f5f5;fontSize=12;fontColor=#333333;align=center;" parent="k7MUPYq6dRed5NR_1Xcw-1" vertex="1">
          <mxGeometry x="120" y="300" width="80" height="40" as="geometry" />
        </mxCell>
        <mxCell id="HnEkBWhdmRtHBTPp4KBJ-5" value="Mutable Data ISO-25012" style="rounded=0;whiteSpace=wrap;html=1;strokeWidth=1;fontSize=12;align=center;" parent="k7MUPYq6dRed5NR_1Xcw-1" vertex="1">
          <mxGeometry x="390" y="250" width="80" height="40" as="geometry" />
        </mxCell>
        <mxCell id="HnEkBWhdmRtHBTPp4KBJ-6" value="Immutable Reference Data" style="rounded=0;whiteSpace=wrap;html=1;strokeWidth=1;fontSize=12;align=center;" parent="k7MUPYq6dRed5NR_1Xcw-1" vertex="1">
          <mxGeometry x="210" y="250" width="80" height="40" as="geometry" />
        </mxCell>
        <mxCell id="HnEkBWhdmRtHBTPp4KBJ-7" value="Validation of API Imported Mutable Data" style="rounded=0;whiteSpace=wrap;html=1;strokeWidth=1;fontSize=12;align=center;" parent="k7MUPYq6dRed5NR_1Xcw-1" vertex="1">
          <mxGeometry x="300" y="250" width="80" height="40" as="geometry" />
        </mxCell>
        <mxCell id="HnEkBWhdmRtHBTPp4KBJ-8" value="Quality Requirements (ISO-25010)" style="rounded=0;whiteSpace=wrap;html=1;strokeWidth=1;fontSize=12;align=center;" parent="k7MUPYq6dRed5NR_1Xcw-1" vertex="1">
          <mxGeometry x="210" y="200" width="80" height="40" as="geometry" />
        </mxCell>
        <mxCell id="HnEkBWhdmRtHBTPp4KBJ-9" value="Uptime&lt;br&gt;(eg: 99.99%)" style="rounded=0;whiteSpace=wrap;html=1;strokeWidth=1;fontSize=12;align=center;" parent="k7MUPYq6dRed5NR_1Xcw-1" vertex="1">
          <mxGeometry x="300" y="300" width="80" height="40" as="geometry" />
        </mxCell>
        <mxCell id="HnEkBWhdmRtHBTPp4KBJ-10" value="Crtical/High&lt;br&gt;Defect Count" style="rounded=0;whiteSpace=wrap;html=1;strokeWidth=1;fontSize=12;align=center;" parent="k7MUPYq6dRed5NR_1Xcw-1" vertex="1">
          <mxGeometry x="300" y="200" width="80" height="40" as="geometry" />
        </mxCell>
        <mxCell id="HnEkBWhdmRtHBTPp4KBJ-11" value="Production Data Backup Test Interval" style="rounded=0;whiteSpace=wrap;html=1;strokeWidth=1;fontSize=12;align=center;" parent="k7MUPYq6dRed5NR_1Xcw-1" vertex="1">
          <mxGeometry x="210" y="300" width="80" height="40" as="geometry" />
        </mxCell>
        <mxCell id="HnEkBWhdmRtHBTPp4KBJ-13" value="Average Duration of Service Calls" style="rounded=0;whiteSpace=wrap;html=1;strokeWidth=1;fontSize=12;align=center;" parent="k7MUPYq6dRed5NR_1Xcw-1" vertex="1">
          <mxGeometry x="480" y="300" width="80" height="40" as="geometry" />
        </mxCell>
        <mxCell id="HnEkBWhdmRtHBTPp4KBJ-14" value="Average Time to Respond (TTR)" style="rounded=0;whiteSpace=wrap;html=1;strokeWidth=1;fontSize=12;align=center;" parent="k7MUPYq6dRed5NR_1Xcw-1" vertex="1">
          <mxGeometry x="210" y="350" width="80" height="40" as="geometry" />
        </mxCell>
        <mxCell id="HnEkBWhdmRtHBTPp4KBJ-15" value="Max Time to Respond (TTR)" style="rounded=0;whiteSpace=wrap;html=1;strokeWidth=1;fontSize=12;align=center;" parent="k7MUPYq6dRed5NR_1Xcw-1" vertex="1">
          <mxGeometry x="300" y="350" width="80" height="40" as="geometry" />
        </mxCell>
        <mxCell id="HnEkBWhdmRtHBTPp4KBJ-16" value="Max Time to Load (TTL)" style="rounded=0;whiteSpace=wrap;html=1;strokeWidth=1;fontSize=12;align=center;" parent="k7MUPYq6dRed5NR_1Xcw-1" vertex="1">
          <mxGeometry x="480" y="350" width="80" height="40" as="geometry" />
        </mxCell>
        <mxCell id="HnEkBWhdmRtHBTPp4KBJ-17" value="Average Time to Load (TTL)" style="rounded=0;whiteSpace=wrap;html=1;strokeWidth=1;fontSize=12;align=center;" parent="k7MUPYq6dRed5NR_1Xcw-1" vertex="1">
          <mxGeometry x="390" y="350" width="80" height="40" as="geometry" />
        </mxCell>
        <mxCell id="HnEkBWhdmRtHBTPp4KBJ-18" value="Operations per Duration" style="rounded=0;whiteSpace=wrap;html=1;strokeWidth=1;fontSize=12;align=center;" parent="k7MUPYq6dRed5NR_1Xcw-1" vertex="1">
          <mxGeometry x="390" y="300" width="80" height="40" as="geometry" />
        </mxCell>
      </root>
    </mxGraphModel>
  </diagram>
</mxfile>
